<?xml version="1.0" encoding="UTF-8"?>
<svg width="574px" height="575px" viewBox="0 0 574 575" version="1.1" xmlns="http://www.w3.org/2000/svg" xmlns:xlink="http://www.w3.org/1999/xlink">
    <!-- Generator: Sketch 46.2 (44496) - http://www.bohemiancoding.com/sketch -->
    <title>kaizoku</title>
    <desc>Created with Sketch.</desc>
    <defs>
        <path d="M122,213 L452,213 C456.418278,213 460,216.581722 460,221 L460,439 C460,443.418278 456.418278,447 452,447 L122,447 C117.581722,447 114,443.418278 114,439 L114,221 L114,221 C114,216.581722 117.581722,213 122,213 L122,213 Z M182,495 C174,495 166,479 158,447 L206,447 C198,479 190,495 182,495 Z M390,495 C382,495 374,479 366,447 L414,447 C406,479 398,495 390,495 Z" id="path-1"></path>
    </defs>
    <g id="Page-1" stroke="none" stroke-width="1" fill="none" fill-rule="evenodd">
        <g id="kaizoku">
            <path d="M108.729602,136.09966 L85.121014,112.491072 C77.7010524,105.07111 77.7010524,93.0409755 85.121014,85.621014 L85.121014,85.621014 L85.121014,85.621014 C92.5409755,78.2010524 104.57111,78.2010524 111.991072,85.621014 L135.640235,109.270178 C171.926869,78.5251864 217.726654,58.6626431 268,54.7221395 L268,21 C268,10.5065898 276.50659,2 287,2 L287,2 L287,2 C297.49341,2 306,10.5065898 306,21 L306,21 L306,54.8026684 C356.130307,58.9473147 401.768589,78.9277943 437.90034,109.729602 L462.008928,85.621014 C469.42889,78.2010524 481.459024,78.2010524 488.878986,85.621014 C496.298948,93.0409755 496.298948,105.07111 488.878986,112.491072 L464.729822,136.640235 C495.372857,172.806535 515.205501,218.422997 519.238133,268.5 L553.5,268.5 C563.99341,268.5 572.5,277.00659 572.5,287.5 C572.5,297.99341 563.99341,306.5 553.5,306.5 L519.238133,306.5 C515.205501,356.577003 495.372857,402.193465 464.729822,438.359765 L488.878986,462.508928 C496.298948,469.92889 496.298948,481.959024 488.878986,489.378986 C481.459024,496.798948 469.42889,496.798948 462.008928,489.378986 L437.90034,465.270398 C401.768589,496.072206 356.130307,516.052685 306,520.197332 L306,554 C306,564.49341 297.49341,573 287,573 C276.50659,573 268,564.49341 268,554 L268,520.277861 C217.726654,516.337357 171.926869,496.474814 135.640235,465.729822 L111.991072,489.378986 C104.57111,496.798948 92.5409755,496.798948 85.121014,489.378986 C77.7010524,481.959024 77.7010524,469.92889 85.121014,462.508928 L108.729602,438.90034 C77.8254189,402.648499 57.8146168,356.826828 53.761867,306.5 L20.5,306.5 C10.0065898,306.5 1.5,297.99341 1.5,287.5 C1.5,277.00659 10.0065898,268.5 20.5,268.5 L20.5,268.5 L53.761867,268.5 C57.8146168,218.173172 77.8254189,172.351501 108.729602,136.09966 Z M137.833114,165.203172 C114.227239,193.865902 98.7493765,229.473607 94.925816,268.5 L241.129942,268.5 L137.833114,165.203172 Z M164.752473,138.382415 L268,241.629942 L268,95.8774849 C229.026859,99.5936215 193.44301,114.929939 164.752473,138.382415 Z M435.617585,409.247527 C458.969731,380.67973 474.275011,345.277473 478.074184,306.5 L332.870058,306.5 L435.617585,409.247527 Z M408.796828,436.166886 L306,333.370058 L306,479.024541 C344.830514,475.118226 380.256551,459.671912 408.796828,436.166886 Z M137.833114,409.796828 L241.129942,306.5 L94.925816,306.5 C98.7493765,345.526393 114.227239,381.134098 137.833114,409.796828 Z M164.752473,436.617585 C193.44301,460.070061 229.026859,475.406379 268,479.122515 L268,333.370058 L164.752473,436.617585 Z M435.617585,165.752473 L332.870058,268.5 L478.074184,268.5 C474.275011,229.722527 458.969731,194.32027 435.617585,165.752473 Z M408.796828,138.833114 C380.256551,115.328088 344.830514,99.8817744 306,95.975459 L306,241.629942 L408.796828,138.833114 Z" id="Combined-Shape{:easeOutBounce;0,0.5,0,571,571,63.49,1;10,0.5,0,571,571,72.73,1;20,0.5,0,571,571,51.39,1;30,0.5,0,571,571,28.35,1;40,0.5,0,571,571,53.84,1;50,0.5,0,571,571,63.49,1;}" stroke="#FFA350" stroke-width="3" fill="#4A4A4A"></path>
            <g id="Combined-Shape">
                <use fill="#FFA350" fill-rule="evenodd" xlink:href="#path-1"></use>
                <path stroke="#4A4A4A" stroke-width="3" d="M122,214.5 C118.410149,214.5 115.5,217.410149 115.5,221 L115.5,439 C115.5,442.589851 118.410149,445.5 122,445.5 L452,445.5 C455.589851,445.5 458.5,442.589851 458.5,439 L458.5,221 C458.5,217.410149 455.589851,214.5 452,214.5 L122,214.5 Z M204.074087,448.5 L159.925913,448.5 C167.568933,478.455841 175.227258,493.5 182,493.5 C188.772742,493.5 196.431067,478.455841 204.074087,448.5 Z M412.074087,448.5 L367.925913,448.5 C375.568933,478.455841 383.227258,493.5 390,493.5 C396.772742,493.5 404.431067,478.455841 412.074087,448.5 Z"></path>
            </g>
            <circle id="Oval" fill="#4A4A4A" cx="206" cy="324" r="48"></circle>
            <ellipse id="Oval-2" stroke="#FFA350" stroke-width="3" fill="#4A4A4A" cx="286.5" cy="238" rx="227.5" ry="86"></ellipse>
            <path d="M260.901544,57.82 C214.421484,71.7019907 180,121.811175 180,181.500203 C180,251.916396 227.905532,309 287,309 C346.094468,309 394,251.916396 394,181.500203 C394,123.780806 361.81273,75.0194499 317.65954,59.311627 C331.74261,68.0417781 341,82.8144189 341,99.5684327 C341,126.391811 317.271092,148.136455 288,148.136455 C258.728908,148.136455 235,126.391811 235,99.5684327 C235,81.8187248 245.390423,66.2928947 260.901548,57.8199988 Z" id="Combined-Shape" stroke="#FFA350" stroke-width="3" fill="#4A4A4A"></path>
            <path d="M341.189434,390.324255 C342.529271,401.268339 345.532793,416.623587 350.2,436.39 L326.46,435.28338 C334.939786,394.366546 339.849597,379.380171 341.189434,390.324255 Z" id="Triangle-2" fill="#4A4A4A" transform="translate(338.330000, 411.625000) rotate(110.000000) translate(-338.330000, -411.625000) "></path>
            <path d="M236.189434,390.324255 C237.529271,401.268339 240.532793,416.623587 245.2,436.39 L221.46,435.28338 C229.939786,394.366546 234.849597,379.380171 236.189434,390.324255 Z" id="Triangle-2" fill="#4A4A4A" transform="translate(233.330000, 411.625000) scale(-1, 1) rotate(110.000000) translate(-233.330000, -411.625000) "></path>
            <path d="M99.5,394.5 L160.5,345.5" id="Line" stroke="#4A4A4A" stroke-width="15" stroke-linecap="square"></path>
        </g>
    </g>
</svg>